<svg xmlns="http://www.w3.org/2000/svg" width="20.004" height="20" viewBox="0 0 20.004 20" aria-hidden="true" class="ico">
<title>RSS Feed</title>
<g transform="translate(-663.231 -497.246)"><path class="ico__path" d="M683.233,516.3a.92.92,0,0,1-.91.95h-2.032a.88.88,0,0,1-.63-.248.843.843,0,0,1-.278-.6,15.875,15.875,0,0,0-1.436-5.8,16,16,0,0,0-8.061-8.061,16.067,16.067,0,0,0-5.8-1.449.851.851,0,0,1-.6-.278.866.866,0,0,1-.248-.617v-2.032a.837.837,0,0,1,.284-.653.849.849,0,0,1,.626-.255h.042a19.94,19.94,0,0,1,13.167,5.88,19.952,19.952,0,0,1,5.882,13.169Zm-7.274-.03a.863.863,0,0,1-.242.683.84.84,0,0,1-.668.3h-1.918a.873.873,0,0,1-.611-.233.863.863,0,0,1-.282-.59,9.089,9.089,0,0,0-8.184-8.182.885.885,0,0,1-.823-.9v-1.918a.841.841,0,0,1,.3-.668.822.822,0,0,1,.611-.242h.07a12.758,12.758,0,0,1,4.347,1.143,12.966,12.966,0,0,1,6.258,6.258A12.761,12.761,0,0,1,675.959,516.266Zm-8.069-3.678a2.743,2.743,0,1,1-1.931-.8A2.633,2.633,0,0,1,667.89,512.587Z" transform="translate(0 0)"/></g></svg>