<svg xmlns="http://www.w3.org/2000/svg" width="21.666" height="20" viewBox="0 0 21.666 20" aria-hidden="true" class="ico">
<title>Print</title>
<g transform="translate(-302.877 -209.395)"><path class="ico__path" d="M324.543,220.227v5.417a.425.425,0,0,1-.416.416h-2.917v2.082a1.245,1.245,0,0,1-1.25,1.252h-12.5a1.248,1.248,0,0,1-1.252-1.252V226.06h-2.917a.425.425,0,0,1-.416-.416v-5.417a2.51,2.51,0,0,1,2.5-2.5h.832v-7.085a1.245,1.245,0,0,1,1.252-1.248h8.75a3.019,3.019,0,0,1,1.145.259,3.084,3.084,0,0,1,.988.626l1.981,1.979a3.069,3.069,0,0,1,.624.99,3.017,3.017,0,0,1,.261,1.145v3.335h.834a2.509,2.509,0,0,1,2.5,2.5Zm-16.665-.834h11.666v-5H317.46a1.245,1.245,0,0,1-1.248-1.25v-2.082h-8.334Zm0,8.334h11.666v-3.333H307.878Zm14.752-6.912a.819.819,0,0,0,0-1.172.833.833,0,1,0,0,1.172Z" transform="translate(0 0)"/></g></svg>