<svg xmlns="http://www.w3.org/2000/svg" xmlns:xlink="http://www.w3.org/1999/xlink" width="26.177" height="21.26" viewBox="0 0 26.177 21.26"><defs><style>.a{fill:none;}.b{clip-path:url(#a);}.c{fill:#fff;}</style><clipPath id="a"><rect class="a" width="26.177" height="21.261"/></clipPath></defs><g class="b"><path class="c" d="M1066.6,580.682a11.262,11.262,0,0,1-2.691,2.774c.011.155.016.388.016.7a15.242,15.242,0,0,1-.631,4.31,15.525,15.525,0,0,1-1.918,4.127,16.221,16.221,0,0,1-3.064,3.5,13.676,13.676,0,0,1-4.285,2.425,15.692,15.692,0,0,1-5.365.9,14.887,14.887,0,0,1-8.238-2.409,11.151,11.151,0,0,0,1.3.067,10.507,10.507,0,0,0,6.661-2.292,5.381,5.381,0,0,1-5.016-3.72,6.822,6.822,0,0,0,1.014.082,5.523,5.523,0,0,0,1.41-.183,5.275,5.275,0,0,1-3.08-1.851,5.185,5.185,0,0,1-1.221-3.413v-.066a5.364,5.364,0,0,0,2.425.681,5.367,5.367,0,0,1-1.744-1.91,5.379,5.379,0,0,1,.083-5.266,15.211,15.211,0,0,0,4.891,3.962,14.952,14.952,0,0,0,6.17,1.651,5.934,5.934,0,0,1-.133-1.228,5.37,5.37,0,0,1,9.286-3.67,10.565,10.565,0,0,0,3.405-1.3,5.215,5.215,0,0,1-2.359,2.957A10.753,10.753,0,0,0,1066.6,580.682Z" transform="translate(-1040.42 -578.156)"/></g></svg>