<svg id="lcgrid" width="850" height="456" viewBox="0 0 850 456" fill="none" xmlns="http://www.w3.org/2000/svg">
<circle cx="2" cy="8" r="2" fill="#F3F3F1"/>
<circle cx="22" cy="8" r="2" fill="#F3F3F1"/>
<circle cx="42" cy="8" r="2" fill="#F3F3F1"/>
<circle cx="62" cy="8" r="2" fill="#F3F3F1"/>
<circle cx="82" cy="8" r="2" fill="#F3F3F1"/>
<circle cx="102" cy="8" r="2" fill="#F3F3F1"/>
<circle cx="122" cy="8" r="2" fill="#F3F3F1"/>
<circle cx="142" cy="8" r="2" fill="#F3F3F1"/>
<circle cx="162" cy="8" r="2" fill="#F3F3F1"/>
<circle cx="182" cy="8" r="2" fill="#F3F3F1"/>
<circle cx="202" cy="8" r="2" fill="#F3F3F1"/>
<circle cx="222" cy="8" r="2" fill="#F3F3F1"/>
<circle cx="242" cy="8" r="2" fill="#F3F3F1"/>
<circle cx="262" cy="8" r="2" fill="#F3F3F1"/>
<circle cx="282" cy="8" r="2" fill="#F3F3F1"/>
<circle cx="302" cy="8" r="2" fill="#F3F3F1"/>
<circle cx="322" cy="8" r="2" fill="#F3F3F1"/>
<circle cx="342" cy="8" r="2" fill="#F3F3F1"/>
<circle cx="362" cy="8" r="2" fill="#F3F3F1"/>
<circle cx="382" cy="8" r="2" fill="#F3F3F1"/>
<circle cx="402" cy="8" r="2" fill="#F3F3F1"/>
<circle cx="422" cy="8" r="2" fill="#F3F3F1"/>
<circle cx="442" cy="8" r="2" fill="#F3F3F1"/>
<circle cx="462" cy="8" r="2" fill="#F3F3F1"/>
<circle cx="482" cy="8" r="2" fill="#F3F3F1"/>
<circle cx="502" cy="8" r="2" fill="#F3F3F1"/>
<circle cx="522" cy="8" r="2" fill="#F3F3F1"/>
<circle cx="542" cy="8" r="2" fill="#F3F3F1"/>
<circle cx="562" cy="8" r="2" fill="#F3F3F1"/>
<circle cx="582" cy="8" r="2" fill="#F3F3F1"/>
<circle cx="602" cy="8" r="2" fill="#F3F3F1"/>
<circle cx="622" cy="8" r="2" fill="#F3F3F1"/>
<circle cx="642" cy="8" r="2" fill="#F3F3F1"/>
<circle cx="662" cy="8" r="2" fill="#F3F3F1"/>
<circle cx="682" cy="8" r="2" fill="#F3F3F1"/>
<circle cx="702" cy="8" r="2" fill="#F3F3F1"/>
<circle cx="722" cy="8" r="2" fill="#F3F3F1"/>
<circle cx="742" cy="8" r="2" fill="#F3F3F1"/>
<circle cx="762" cy="8" r="2" fill="#F3F3F1"/>
<circle cx="782" cy="8" r="2" fill="#F3F3F1"/>
<circle cx="802" cy="8" r="2" fill="#F3F3F1"/>
<circle cx="822" cy="8" r="2" fill="#F3F3F1"/>
<circle cx="842" cy="8" r="2" fill="#F3F3F1"/>
<circle cx="2" cy="28" r="2" fill="#F3F3F1"/>
<circle cx="22" cy="28" r="2" fill="#F3F3F1"/>
<circle cx="42" cy="28" r="2" fill="#F3F3F1"/>
<circle cx="62" cy="28" r="2" fill="#F3F3F1"/>
<circle cx="82" cy="28" r="2" fill="#F3F3F1"/>
<circle cx="102" cy="28" r="2" fill="#F3F3F1"/>
<circle cx="122" cy="28" r="2" fill="#F3F3F1"/>
<circle cx="142" cy="28" r="2" fill="#F3F3F1"/>
<circle cx="162" cy="28" r="2" fill="#F3F3F1"/>
<circle cx="182" cy="28" r="2" fill="#F3F3F1"/>
<circle cx="202" cy="28" r="2" fill="#F3F3F1"/>
<circle cx="222" cy="28" r="2" fill="#F3F3F1"/>
<circle cx="242" cy="28" r="2" fill="#F3F3F1"/>
<circle cx="262" cy="28" r="2" fill="#F3F3F1"/>
<circle cx="282" cy="28" r="2" fill="#F3F3F1"/>
<circle cx="302" cy="28" r="2" fill="#F3F3F1"/>
<circle cx="322" cy="28" r="2" fill="#F3F3F1"/>
<circle cx="342" cy="28" r="2" fill="#F3F3F1"/>
<circle cx="362" cy="28" r="2" fill="#F3F3F1"/>
<circle cx="382" cy="28" r="2" fill="#F3F3F1"/>
<circle cx="402" cy="28" r="2" fill="#F3F3F1"/>
<circle cx="422" cy="28" r="2" fill="#F3F3F1"/>
<circle cx="442" cy="28" r="2" fill="#F3F3F1"/>
<circle cx="462" cy="28" r="2" fill="#F3F3F1"/>
<circle cx="482" cy="28" r="2" fill="#F3F3F1"/>
<circle cx="502" cy="28" r="2" fill="#F3F3F1"/>
<circle cx="522" cy="28" r="2" fill="#F3F3F1"/>
<circle cx="542" cy="28" r="2" fill="#F3F3F1"/>
<circle cx="562" cy="28" r="2" fill="#F3F3F1"/>
<circle cx="582" cy="28" r="2" fill="#F3F3F1"/>
<circle cx="602" cy="28" r="2" fill="#F3F3F1"/>
<circle cx="622" cy="28" r="2" fill="#F3F3F1"/>
<circle cx="642" cy="28" r="2" fill="#F3F3F1"/>
<circle cx="662" cy="28" r="2" fill="#F3F3F1"/>
<circle cx="682" cy="28" r="2" fill="#F3F3F1"/>
<circle cx="702" cy="28" r="2" fill="#F3F3F1"/>
<circle cx="722" cy="28" r="2" fill="#F3F3F1"/>
<circle cx="742" cy="28" r="2" fill="#F3F3F1"/>
<circle cx="762" cy="28" r="2" fill="#F3F3F1"/>
<circle cx="782" cy="28" r="2" fill="#F3F3F1"/>
<circle cx="802" cy="28" r="2" fill="#F3F3F1"/>
<circle cx="822" cy="28" r="2" fill="#F3F3F1"/>
<circle cx="842" cy="28" r="2" fill="#F3F3F1"/>
<circle cx="2" cy="48" r="2" fill="#F3F3F1"/>
<circle cx="22" cy="48" r="2" fill="#F3F3F1"/>
<circle cx="42" cy="48" r="2" fill="#F3F3F1"/>
<circle cx="62" cy="48" r="2" fill="#F3F3F1"/>
<circle cx="82" cy="48" r="2" fill="#F3F3F1"/>
<circle cx="102" cy="48" r="2" fill="#F3F3F1"/>
<circle cx="122" cy="48" r="2" fill="#F3F3F1"/>
<circle cx="142" cy="48" r="2" fill="#F3F3F1"/>
<circle cx="162" cy="48" r="2" fill="#F3F3F1"/>
<circle cx="182" cy="48" r="2" fill="#F3F3F1"/>
<circle cx="202" cy="48" r="2" fill="#F3F3F1"/>
<circle cx="222" cy="48" r="2" fill="#F3F3F1"/>
<circle cx="242" cy="48" r="2" fill="#F3F3F1"/>
<circle cx="262" cy="48" r="2" fill="#F3F3F1"/>
<circle cx="282" cy="48" r="2" fill="#F3F3F1"/>
<circle cx="302" cy="48" r="2" fill="#F3F3F1"/>
<circle cx="322" cy="48" r="2" fill="#F3F3F1"/>
<circle cx="342" cy="48" r="2" fill="#F3F3F1"/>
<circle cx="362" cy="48" r="2" fill="#F3F3F1"/>
<circle cx="382" cy="48" r="2" fill="#F3F3F1"/>
<circle cx="402" cy="48" r="2" fill="#F3F3F1"/>
<circle cx="422" cy="48" r="2" fill="#F3F3F1"/>
<circle cx="442" cy="48" r="2" fill="#F3F3F1"/>
<circle cx="462" cy="48" r="2" fill="#F3F3F1"/>
<circle cx="482" cy="48" r="2" fill="#F3F3F1"/>
<circle cx="502" cy="48" r="2" fill="#F3F3F1"/>
<circle cx="522" cy="48" r="2" fill="#F3F3F1"/>
<circle cx="542" cy="48" r="2" fill="#F3F3F1"/>
<circle cx="562" cy="48" r="2" fill="#F3F3F1"/>
<circle cx="582" cy="48" r="2" fill="#F3F3F1"/>
<circle cx="602" cy="48" r="2" fill="#F3F3F1"/>
<circle cx="622" cy="48" r="2" fill="#F3F3F1"/>
<circle cx="642" cy="48" r="2" fill="#F3F3F1"/>
<circle cx="662" cy="48" r="2" fill="#F3F3F1"/>
<circle cx="682" cy="48" r="2" fill="#F3F3F1"/>
<circle cx="702" cy="48" r="2" fill="#F3F3F1"/>
<circle cx="722" cy="48" r="2" fill="#F3F3F1"/>
<circle cx="742" cy="48" r="2" fill="#F3F3F1"/>
<circle cx="762" cy="48" r="2" fill="#F3F3F1"/>
<circle cx="782" cy="48" r="2" fill="#F3F3F1"/>
<circle cx="802" cy="48" r="2" fill="#F3F3F1"/>
<circle cx="822" cy="48" r="2" fill="#F3F3F1"/>
<circle cx="842" cy="48" r="2" fill="#F3F3F1"/>
<circle cx="2" cy="68" r="2" fill="#F3F3F1"/>
<circle cx="22" cy="68" r="2" fill="#F3F3F1"/>
<circle cx="42" cy="68" r="2" fill="#F3F3F1"/>
<circle cx="62" cy="68" r="2" fill="#F3F3F1"/>
<circle cx="82" cy="68" r="2" fill="#F3F3F1"/>
<circle cx="102" cy="68" r="2" fill="#F3F3F1"/>
<circle cx="122" cy="68" r="2" fill="#F3F3F1"/>
<circle cx="142" cy="68" r="2" fill="#F3F3F1"/>
<circle cx="162" cy="68" r="2" fill="#F3F3F1"/>
<circle cx="182" cy="68" r="2" fill="#F3F3F1"/>
<circle cx="202" cy="68" r="2" fill="#F3F3F1"/>
<circle cx="222" cy="68" r="2" fill="#F3F3F1"/>
<circle cx="242" cy="68" r="2" fill="#F3F3F1"/>
<circle cx="262" cy="68" r="2" fill="#F3F3F1"/>
<circle cx="282" cy="68" r="2" fill="#F3F3F1"/>
<circle cx="302" cy="68" r="2" fill="#F3F3F1"/>
<circle cx="322" cy="68" r="2" fill="#F3F3F1"/>
<circle cx="342" cy="68" r="2" fill="#F3F3F1"/>
<circle cx="362" cy="68" r="2" fill="#F3F3F1"/>
<circle cx="382" cy="68" r="2" fill="#F3F3F1"/>
<circle cx="402" cy="68" r="2" fill="#F3F3F1"/>
<circle cx="422" cy="68" r="2" fill="#F3F3F1"/>
<circle cx="442" cy="68" r="2" fill="#F3F3F1"/>
<circle cx="462" cy="68" r="2" fill="#F3F3F1"/>
<circle cx="482" cy="68" r="2" fill="#F3F3F1"/>
<circle cx="502" cy="68" r="2" fill="#F3F3F1"/>
<circle cx="522" cy="68" r="2" fill="#F3F3F1"/>
<circle cx="542" cy="68" r="2" fill="#F3F3F1"/>
<circle cx="562" cy="68" r="2" fill="#F3F3F1"/>
<circle cx="582" cy="68" r="2" fill="#F3F3F1"/>
<circle cx="602" cy="68" r="2" fill="#F3F3F1"/>
<circle cx="622" cy="68" r="2" fill="#F3F3F1"/>
<circle cx="642" cy="68" r="2" fill="#F3F3F1"/>
<circle cx="662" cy="68" r="2" fill="#F3F3F1"/>
<circle cx="682" cy="68" r="2" fill="#F3F3F1"/>
<circle cx="702" cy="68" r="2" fill="#F3F3F1"/>
<circle cx="722" cy="68" r="2" fill="#F3F3F1"/>
<circle cx="742" cy="68" r="2" fill="#F3F3F1"/>
<circle cx="762" cy="68" r="2" fill="#F3F3F1"/>
<circle cx="782" cy="68" r="2" fill="#F3F3F1"/>
<circle cx="802" cy="68" r="2" fill="#F3F3F1"/>
<circle cx="822" cy="68" r="2" fill="#F3F3F1"/>
<circle cx="842" cy="68" r="2" fill="#F3F3F1"/>
<circle cx="2" cy="88" r="2" fill="#F3F3F1"/>
<circle cx="22" cy="88" r="2" fill="#F3F3F1"/>
<circle cx="42" cy="88" r="2" fill="#F3F3F1"/>
<circle cx="62" cy="88" r="2" fill="#F3F3F1"/>
<circle cx="82" cy="88" r="2" fill="#F3F3F1"/>
<circle cx="102" cy="88" r="2" fill="#F3F3F1"/>
<circle cx="122" cy="88" r="2" fill="#F3F3F1"/>
<circle cx="142" cy="88" r="2" fill="#F3F3F1"/>
<circle cx="162" cy="88" r="2" fill="#F3F3F1"/>
<circle cx="182" cy="88" r="2" fill="#F3F3F1"/>
<circle cx="202" cy="88" r="2" fill="#F3F3F1"/>
<circle cx="222" cy="88" r="2" fill="#F3F3F1"/>
<circle cx="242" cy="88" r="2" fill="#F3F3F1"/>
<circle cx="262" cy="88" r="2" fill="#F3F3F1"/>
<circle cx="282" cy="88" r="2" fill="#F3F3F1"/>
<circle cx="302" cy="88" r="2" fill="#F3F3F1"/>
<circle cx="322" cy="88" r="2" fill="#F3F3F1"/>
<circle cx="342" cy="88" r="2" fill="#F3F3F1"/>
<circle cx="362" cy="88" r="2" fill="#F3F3F1"/>
<circle cx="382" cy="88" r="2" fill="#F3F3F1"/>
<circle cx="402" cy="88" r="2" fill="#F3F3F1"/>
<circle cx="422" cy="88" r="2" fill="#F3F3F1"/>
<circle cx="442" cy="88" r="2" fill="#F3F3F1"/>
<circle cx="462" cy="88" r="2" fill="#F3F3F1"/>
<circle cx="482" cy="88" r="2" fill="#F3F3F1"/>
<circle cx="502" cy="88" r="2" fill="#F3F3F1"/>
<circle cx="522" cy="88" r="2" fill="#F3F3F1"/>
<circle cx="542" cy="88" r="2" fill="#F3F3F1"/>
<circle cx="562" cy="88" r="2" fill="#F3F3F1"/>
<circle cx="582" cy="88" r="2" fill="#F3F3F1"/>
<circle cx="602" cy="88" r="2" fill="#F3F3F1"/>
<circle cx="622" cy="88" r="2" fill="#F3F3F1"/>
<circle cx="642" cy="88" r="2" fill="#F3F3F1"/>
<circle cx="662" cy="88" r="2" fill="#F3F3F1"/>
<circle cx="682" cy="88" r="2" fill="#F3F3F1"/>
<circle cx="702" cy="88" r="2" fill="#F3F3F1"/>
<circle cx="722" cy="88" r="2" fill="#F3F3F1"/>
<circle cx="742" cy="88" r="2" fill="#F3F3F1"/>
<circle cx="762" cy="88" r="2" fill="#F3F3F1"/>
<circle cx="782" cy="88" r="2" fill="#F3F3F1"/>
<circle cx="802" cy="88" r="2" fill="#F3F3F1"/>
<circle cx="822" cy="88" r="2" fill="#F3F3F1"/>
<circle cx="842" cy="88" r="2" fill="#F3F3F1"/>
<circle cx="2" cy="108" r="2" fill="#F3F3F1"/>
<circle cx="22" cy="108" r="2" fill="#F3F3F1"/>
<circle cx="42" cy="108" r="2" fill="#F3F3F1"/>
<circle cx="62" cy="108" r="2" fill="#F3F3F1"/>
<circle cx="82" cy="108" r="2" fill="#F3F3F1"/>
<circle cx="102" cy="108" r="2" fill="#F3F3F1"/>
<circle cx="122" cy="108" r="2" fill="#F3F3F1"/>
<circle cx="142" cy="108" r="2" fill="#F3F3F1"/>
<circle cx="162" cy="108" r="2" fill="#F3F3F1"/>
<circle cx="182" cy="108" r="2" fill="#F3F3F1"/>
<circle cx="202" cy="108" r="2" fill="#F3F3F1"/>
<circle cx="222" cy="108" r="2" fill="#F3F3F1"/>
<circle cx="242" cy="108" r="2" fill="#F3F3F1"/>
<circle cx="262" cy="108" r="2" fill="#F3F3F1"/>
<circle cx="282" cy="108" r="2" fill="#F3F3F1"/>
<circle cx="302" cy="108" r="2" fill="#F3F3F1"/>
<circle cx="322" cy="108" r="2" fill="#F3F3F1"/>
<circle cx="342" cy="108" r="2" fill="#F3F3F1"/>
<circle cx="362" cy="108" r="2" fill="#F3F3F1"/>
<circle cx="382" cy="108" r="2" fill="#F3F3F1"/>
<circle cx="402" cy="108" r="2" fill="#F3F3F1"/>
<circle cx="422" cy="108" r="2" fill="#F3F3F1"/>
<circle cx="442" cy="108" r="2" fill="#F3F3F1"/>
<circle cx="462" cy="108" r="2" fill="#F3F3F1"/>
<circle cx="482" cy="108" r="2" fill="#F3F3F1"/>
<circle cx="502" cy="108" r="2" fill="#F3F3F1"/>
<circle cx="522" cy="108" r="2" fill="#F3F3F1"/>
<circle cx="542" cy="108" r="2" fill="#F3F3F1"/>
<circle cx="562" cy="108" r="2" fill="#F3F3F1"/>
<circle cx="582" cy="108" r="2" fill="#F3F3F1"/>
<circle cx="602" cy="108" r="2" fill="#F3F3F1"/>
<circle cx="622" cy="108" r="2" fill="#F3F3F1"/>
<circle cx="642" cy="108" r="2" fill="#F3F3F1"/>
<circle cx="662" cy="108" r="2" fill="#F3F3F1"/>
<circle cx="682" cy="108" r="2" fill="#F3F3F1"/>
<circle cx="702" cy="108" r="2" fill="#F3F3F1"/>
<circle cx="722" cy="108" r="2" fill="#F3F3F1"/>
<circle cx="742" cy="108" r="2" fill="#F3F3F1"/>
<circle cx="762" cy="108" r="2" fill="#F3F3F1"/>
<circle cx="782" cy="108" r="2" fill="#F3F3F1"/>
<circle cx="802" cy="108" r="2" fill="#F3F3F1"/>
<circle cx="822" cy="108" r="2" fill="#F3F3F1"/>
<circle cx="842" cy="108" r="2" fill="#F3F3F1"/>
<circle cx="2" cy="128" r="2" fill="#F3F3F1"/>
<circle cx="22" cy="128" r="2" fill="#F3F3F1"/>
<circle cx="42" cy="128" r="2" fill="#F3F3F1"/>
<circle cx="62" cy="128" r="2" fill="#F3F3F1"/>
<circle cx="82" cy="128" r="2" fill="#F3F3F1"/>
<circle cx="102" cy="128" r="2" fill="#F3F3F1"/>
<circle cx="122" cy="128" r="2" fill="#F3F3F1"/>
<circle cx="142" cy="128" r="2" fill="#F3F3F1"/>
<circle cx="162" cy="128" r="2" fill="#F3F3F1"/>
<circle cx="182" cy="128" r="2" fill="#F3F3F1"/>
<circle cx="202" cy="128" r="2" fill="#F3F3F1"/>
<circle cx="222" cy="128" r="2" fill="#F3F3F1"/>
<circle cx="242" cy="128" r="2" fill="#F3F3F1"/>
<circle cx="262" cy="128" r="2" fill="#F3F3F1"/>
<circle cx="282" cy="128" r="2" fill="#F3F3F1"/>
<circle cx="302" cy="128" r="2" fill="#F3F3F1"/>
<circle cx="322" cy="128" r="2" fill="#F3F3F1"/>
<circle cx="342" cy="128" r="2" fill="#F3F3F1"/>
<circle cx="362" cy="128" r="2" fill="#F3F3F1"/>
<circle cx="382" cy="128" r="2" fill="#F3F3F1"/>
<circle cx="402" cy="128" r="2" fill="#F3F3F1"/>
<circle cx="422" cy="128" r="2" fill="#F3F3F1"/>
<circle cx="442" cy="128" r="2" fill="#F3F3F1"/>
<circle cx="462" cy="128" r="2" fill="#F3F3F1"/>
<circle cx="482" cy="128" r="2" fill="#F3F3F1"/>
<circle cx="502" cy="128" r="2" fill="#F3F3F1"/>
<circle cx="522" cy="128" r="2" fill="#F3F3F1"/>
<circle cx="542" cy="128" r="2" fill="#F3F3F1"/>
<circle cx="562" cy="128" r="2" fill="#F3F3F1"/>
<circle cx="582" cy="128" r="2" fill="#F3F3F1"/>
<circle cx="602" cy="128" r="2" fill="#F3F3F1"/>
<circle cx="622" cy="128" r="2" fill="#F3F3F1"/>
<circle cx="642" cy="128" r="2" fill="#F3F3F1"/>
<circle cx="662" cy="128" r="2" fill="#F3F3F1"/>
<circle cx="682" cy="128" r="2" fill="#F3F3F1"/>
<circle cx="702" cy="128" r="2" fill="#F3F3F1"/>
<circle cx="722" cy="128" r="2" fill="#F3F3F1"/>
<circle cx="742" cy="128" r="2" fill="#F3F3F1"/>
<circle cx="762" cy="128" r="2" fill="#F3F3F1"/>
<circle cx="782" cy="128" r="2" fill="#F3F3F1"/>
<circle cx="802" cy="128" r="2" fill="#F3F3F1"/>
<circle cx="822" cy="128" r="2" fill="#F3F3F1"/>
<circle cx="842" cy="128" r="2" fill="#F3F3F1"/>
<circle cx="2" cy="148" r="2" fill="#F3F3F1"/>
<circle cx="22" cy="148" r="2" fill="#F3F3F1"/>
<circle cx="42" cy="148" r="2" fill="#F3F3F1"/>
<circle cx="62" cy="148" r="2" fill="#F3F3F1"/>
<circle cx="82" cy="148" r="2" fill="#F3F3F1"/>
<circle cx="102" cy="148" r="2" fill="#F3F3F1"/>
<circle cx="122" cy="148" r="2" fill="#F3F3F1"/>
<circle cx="142" cy="148" r="2" fill="#F3F3F1"/>
<circle cx="162" cy="148" r="2" fill="#F3F3F1"/>
<circle cx="182" cy="148" r="2" fill="#F3F3F1"/>
<circle cx="202" cy="148" r="2" fill="#F3F3F1"/>
<circle cx="222" cy="148" r="2" fill="#F3F3F1"/>
<circle cx="242" cy="148" r="2" fill="#F3F3F1"/>
<circle cx="262" cy="148" r="2" fill="#F3F3F1"/>
<circle cx="282" cy="148" r="2" fill="#F3F3F1"/>
<circle cx="302" cy="148" r="2" fill="#F3F3F1"/>
<circle cx="322" cy="148" r="2" fill="#F3F3F1"/>
<circle cx="342" cy="148" r="2" fill="#F3F3F1"/>
<circle cx="362" cy="148" r="2" fill="#F3F3F1"/>
<circle cx="382" cy="148" r="2" fill="#F3F3F1"/>
<circle cx="402" cy="148" r="2" fill="#F3F3F1"/>
<circle cx="422" cy="148" r="2" fill="#F3F3F1"/>
<circle cx="442" cy="148" r="2" fill="#F3F3F1"/>
<circle cx="462" cy="148" r="2" fill="#F3F3F1"/>
<circle cx="482" cy="148" r="2" fill="#F3F3F1"/>
<circle cx="502" cy="148" r="2" fill="#F3F3F1"/>
<circle cx="522" cy="148" r="2" fill="#F3F3F1"/>
<circle cx="542" cy="148" r="2" fill="#F3F3F1"/>
<circle cx="562" cy="148" r="2" fill="#F3F3F1"/>
<circle cx="582" cy="148" r="2" fill="#F3F3F1"/>
<circle cx="602" cy="148" r="2" fill="#F3F3F1"/>
<circle cx="622" cy="148" r="2" fill="#F3F3F1"/>
<circle cx="642" cy="148" r="2" fill="#F3F3F1"/>
<circle cx="662" cy="148" r="2" fill="#F3F3F1"/>
<circle cx="682" cy="148" r="2" fill="#F3F3F1"/>
<circle cx="702" cy="148" r="2" fill="#F3F3F1"/>
<circle cx="722" cy="148" r="2" fill="#F3F3F1"/>
<circle cx="742" cy="148" r="2" fill="#F3F3F1"/>
<circle cx="762" cy="148" r="2" fill="#F3F3F1"/>
<circle cx="782" cy="148" r="2" fill="#F3F3F1"/>
<circle cx="802" cy="148" r="2" fill="#F3F3F1"/>
<circle cx="822" cy="148" r="2" fill="#F3F3F1"/>
<circle cx="842" cy="148" r="2" fill="#F3F3F1"/>
<circle cx="2" cy="168" r="2" fill="#F3F3F1"/>
<circle cx="22" cy="168" r="2" fill="#F3F3F1"/>
<circle cx="42" cy="168" r="2" fill="#F3F3F1"/>
<circle cx="62" cy="168" r="2" fill="#F3F3F1"/>
<circle cx="82" cy="168" r="2" fill="#F3F3F1"/>
<circle cx="102" cy="168" r="2" fill="#F3F3F1"/>
<circle cx="122" cy="168" r="2" fill="#F3F3F1"/>
<circle cx="142" cy="168" r="2" fill="#F3F3F1"/>
<circle cx="162" cy="168" r="2" fill="#F3F3F1"/>
<circle cx="182" cy="168" r="2" fill="#F3F3F1"/>
<circle cx="202" cy="168" r="2" fill="#F3F3F1"/>
<circle cx="222" cy="168" r="2" fill="#F3F3F1"/>
<circle cx="242" cy="168" r="2" fill="#F3F3F1"/>
<circle cx="262" cy="168" r="2" fill="#F3F3F1"/>
<circle cx="282" cy="168" r="2" fill="#F3F3F1"/>
<circle cx="302" cy="168" r="2" fill="#F3F3F1"/>
<circle cx="322" cy="168" r="2" fill="#F3F3F1"/>
<circle cx="342" cy="168" r="2" fill="#F3F3F1"/>
<circle cx="362" cy="168" r="2" fill="#F3F3F1"/>
<circle cx="382" cy="168" r="2" fill="#F3F3F1"/>
<circle cx="402" cy="168" r="2" fill="#F3F3F1"/>
<circle cx="422" cy="168" r="2" fill="#F3F3F1"/>
<circle cx="442" cy="168" r="2" fill="#F3F3F1"/>
<circle cx="462" cy="168" r="2" fill="#F3F3F1"/>
<circle cx="482" cy="168" r="2" fill="#F3F3F1"/>
<circle cx="502" cy="168" r="2" fill="#F3F3F1"/>
<circle cx="522" cy="168" r="2" fill="#F3F3F1"/>
<circle cx="542" cy="168" r="2" fill="#F3F3F1"/>
<circle cx="562" cy="168" r="2" fill="#F3F3F1"/>
<circle cx="582" cy="168" r="2" fill="#F3F3F1"/>
<circle cx="602" cy="168" r="2" fill="#F3F3F1"/>
<circle cx="622" cy="168" r="2" fill="#F3F3F1"/>
<circle cx="642" cy="168" r="2" fill="#F3F3F1"/>
<circle cx="662" cy="168" r="2" fill="#F3F3F1"/>
<circle cx="682" cy="168" r="2" fill="#F3F3F1"/>
<circle cx="702" cy="168" r="2" fill="#F3F3F1"/>
<circle cx="722" cy="168" r="2" fill="#F3F3F1"/>
<circle cx="742" cy="168" r="2" fill="#F3F3F1"/>
<circle cx="762" cy="168" r="2" fill="#F3F3F1"/>
<circle cx="782" cy="168" r="2" fill="#F3F3F1"/>
<circle cx="802" cy="168" r="2" fill="#F3F3F1"/>
<circle cx="822" cy="168" r="2" fill="#F3F3F1"/>
<circle cx="842" cy="168" r="2" fill="#F3F3F1"/>
<circle cx="2" cy="188" r="2" fill="#F3F3F1"/>
<circle cx="22" cy="188" r="2" fill="#F3F3F1"/>
<circle cx="42" cy="188" r="2" fill="#F3F3F1"/>
<circle cx="62" cy="188" r="2" fill="#F3F3F1"/>
<circle cx="82" cy="188" r="2" fill="#F3F3F1"/>
<circle cx="102" cy="188" r="2" fill="#F3F3F1"/>
<circle cx="122" cy="188" r="2" fill="#F3F3F1"/>
<circle cx="142" cy="188" r="2" fill="#F3F3F1"/>
<circle cx="162" cy="188" r="2" fill="#F3F3F1"/>
<circle cx="182" cy="188" r="2" fill="#F3F3F1"/>
<circle cx="202" cy="188" r="2" fill="#F3F3F1"/>
<circle cx="222" cy="188" r="2" fill="#F3F3F1"/>
<circle cx="242" cy="188" r="2" fill="#F3F3F1"/>
<circle cx="262" cy="188" r="2" fill="#F3F3F1"/>
<circle cx="282" cy="188" r="2" fill="#F3F3F1"/>
<circle cx="302" cy="188" r="2" fill="#F3F3F1"/>
<circle cx="322" cy="188" r="2" fill="#F3F3F1"/>
<circle cx="342" cy="188" r="2" fill="#F3F3F1"/>
<circle cx="362" cy="188" r="2" fill="#F3F3F1"/>
<circle cx="382" cy="188" r="2" fill="#F3F3F1"/>
<circle cx="402" cy="188" r="2" fill="#F3F3F1"/>
<circle cx="422" cy="188" r="2" fill="#F3F3F1"/>
<circle cx="442" cy="188" r="2" fill="#F3F3F1"/>
<circle cx="462" cy="188" r="2" fill="#F3F3F1"/>
<circle cx="482" cy="188" r="2" fill="#F3F3F1"/>
<circle cx="502" cy="188" r="2" fill="#F3F3F1"/>
<circle cx="522" cy="188" r="2" fill="#F3F3F1"/>
<circle cx="542" cy="188" r="2" fill="#F3F3F1"/>
<circle cx="562" cy="188" r="2" fill="#F3F3F1"/>
<circle cx="582" cy="188" r="2" fill="#F3F3F1"/>
<circle cx="602" cy="188" r="2" fill="#F3F3F1"/>
<circle cx="622" cy="188" r="2" fill="#F3F3F1"/>
<circle cx="642" cy="188" r="2" fill="#F3F3F1"/>
<circle cx="662" cy="188" r="2" fill="#F3F3F1"/>
<circle cx="682" cy="188" r="2" fill="#F3F3F1"/>
<circle cx="702" cy="188" r="2" fill="#F3F3F1"/>
<circle cx="722" cy="188" r="2" fill="#F3F3F1"/>
<circle cx="742" cy="188" r="2" fill="#F3F3F1"/>
<circle cx="762" cy="188" r="2" fill="#F3F3F1"/>
<circle cx="782" cy="188" r="2" fill="#F3F3F1"/>
<circle cx="802" cy="188" r="2" fill="#F3F3F1"/>
<circle cx="822" cy="188" r="2" fill="#F3F3F1"/>
<circle cx="842" cy="188" r="2" fill="#F3F3F1"/>
<circle cx="2" cy="208" r="2" fill="#F3F3F1"/>
<circle cx="22" cy="208" r="2" fill="#F3F3F1"/>
<circle cx="42" cy="208" r="2" fill="#F3F3F1"/>
<circle cx="62" cy="208" r="2" fill="#F3F3F1"/>
<circle cx="82" cy="208" r="2" fill="#F3F3F1"/>
<circle cx="102" cy="208" r="2" fill="#F3F3F1"/>
<circle cx="122" cy="208" r="2" fill="#F3F3F1"/>
<circle cx="142" cy="208" r="2" fill="#F3F3F1"/>
<circle cx="162" cy="208" r="2" fill="#F3F3F1"/>
<circle cx="182" cy="208" r="2" fill="#F3F3F1"/>
<circle cx="202" cy="208" r="2" fill="#F3F3F1"/>
<circle cx="222" cy="208" r="2" fill="#F3F3F1"/>
<circle cx="242" cy="208" r="2" fill="#F3F3F1"/>
<circle cx="262" cy="208" r="2" fill="#F3F3F1"/>
<circle cx="282" cy="208" r="2" fill="#F3F3F1"/>
<circle cx="302" cy="208" r="2" fill="#F3F3F1"/>
<circle cx="322" cy="208" r="2" fill="#F3F3F1"/>
<circle cx="342" cy="208" r="2" fill="#F3F3F1"/>
<circle cx="362" cy="208" r="2" fill="#F3F3F1"/>
<circle cx="382" cy="208" r="2" fill="#F3F3F1"/>
<circle cx="402" cy="208" r="2" fill="#F3F3F1"/>
<circle cx="422" cy="208" r="2" fill="#F3F3F1"/>
<circle cx="442" cy="208" r="2" fill="#F3F3F1"/>
<circle cx="462" cy="208" r="2" fill="#F3F3F1"/>
<circle cx="482" cy="208" r="2" fill="#F3F3F1"/>
<circle cx="502" cy="208" r="2" fill="#F3F3F1"/>
<circle cx="522" cy="208" r="2" fill="#F3F3F1"/>
<circle cx="542" cy="208" r="2" fill="#F3F3F1"/>
<circle cx="562" cy="208" r="2" fill="#F3F3F1"/>
<circle cx="582" cy="208" r="2" fill="#F3F3F1"/>
<circle cx="602" cy="208" r="2" fill="#F3F3F1"/>
<circle cx="622" cy="208" r="2" fill="#F3F3F1"/>
<circle cx="642" cy="208" r="2" fill="#F3F3F1"/>
<circle cx="662" cy="208" r="2" fill="#F3F3F1"/>
<circle cx="682" cy="208" r="2" fill="#F3F3F1"/>
<circle cx="702" cy="208" r="2" fill="#F3F3F1"/>
<circle cx="722" cy="208" r="2" fill="#F3F3F1"/>
<circle cx="742" cy="208" r="2" fill="#F3F3F1"/>
<circle cx="762" cy="208" r="2" fill="#F3F3F1"/>
<circle cx="782" cy="208" r="2" fill="#F3F3F1"/>
<circle cx="802" cy="208" r="2" fill="#F3F3F1"/>
<circle cx="822" cy="208" r="2" fill="#F3F3F1"/>
<circle cx="842" cy="208" r="2" fill="#F3F3F1"/>
<circle cx="2" cy="228" r="2" fill="#F3F3F1"/>
<circle cx="22" cy="228" r="2" fill="#F3F3F1"/>
<circle cx="42" cy="228" r="2" fill="#F3F3F1"/>
<circle cx="62" cy="228" r="2" fill="#F3F3F1"/>
<circle cx="82" cy="228" r="2" fill="#F3F3F1"/>
<circle cx="102" cy="228" r="2" fill="#F3F3F1"/>
<circle cx="122" cy="228" r="2" fill="#F3F3F1"/>
<circle cx="142" cy="228" r="2" fill="#F3F3F1"/>
<circle cx="162" cy="228" r="2" fill="#F3F3F1"/>
<circle cx="182" cy="228" r="2" fill="#F3F3F1"/>
<circle cx="202" cy="228" r="2" fill="#F3F3F1"/>
<circle cx="222" cy="228" r="2" fill="#F3F3F1"/>
<circle cx="242" cy="228" r="2" fill="#F3F3F1"/>
<circle cx="262" cy="228" r="2" fill="#F3F3F1"/>
<circle cx="282" cy="228" r="2" fill="#F3F3F1"/>
<circle cx="302" cy="228" r="2" fill="#F3F3F1"/>
<circle cx="322" cy="228" r="2" fill="#F3F3F1"/>
<circle cx="342" cy="228" r="2" fill="#F3F3F1"/>
<circle cx="362" cy="228" r="2" fill="#F3F3F1"/>
<circle cx="382" cy="228" r="2" fill="#F3F3F1"/>
<circle cx="402" cy="228" r="2" fill="#F3F3F1"/>
<circle cx="422" cy="228" r="2" fill="#F3F3F1"/>
<circle cx="442" cy="228" r="2" fill="#F3F3F1"/>
<circle cx="462" cy="228" r="2" fill="#F3F3F1"/>
<circle cx="482" cy="228" r="2" fill="#F3F3F1"/>
<circle cx="502" cy="228" r="2" fill="#F3F3F1"/>
<circle cx="522" cy="228" r="2" fill="#F3F3F1"/>
<circle cx="542" cy="228" r="2" fill="#F3F3F1"/>
<circle cx="562" cy="228" r="2" fill="#F3F3F1"/>
<circle cx="582" cy="228" r="2" fill="#F3F3F1"/>
<circle cx="602" cy="228" r="2" fill="#F3F3F1"/>
<circle cx="622" cy="228" r="2" fill="#F3F3F1"/>
<circle cx="642" cy="228" r="2" fill="#F3F3F1"/>
<circle cx="662" cy="228" r="2" fill="#F3F3F1"/>
<circle cx="682" cy="228" r="2" fill="#F3F3F1"/>
<circle cx="702" cy="228" r="2" fill="#F3F3F1"/>
<circle cx="722" cy="228" r="2" fill="#F3F3F1"/>
<circle cx="742" cy="228" r="2" fill="#F3F3F1"/>
<circle cx="762" cy="228" r="2" fill="#F3F3F1"/>
<circle cx="782" cy="228" r="2" fill="#F3F3F1"/>
<circle cx="802" cy="228" r="2" fill="#F3F3F1"/>
<circle cx="822" cy="228" r="2" fill="#F3F3F1"/>
<circle cx="842" cy="228" r="2" fill="#F3F3F1"/>
<circle cx="2" cy="248" r="2" fill="#F3F3F1"/>
<circle cx="22" cy="248" r="2" fill="#F3F3F1"/>
<circle cx="42" cy="248" r="2" fill="#F3F3F1"/>
<circle cx="62" cy="248" r="2" fill="#F3F3F1"/>
<circle cx="82" cy="248" r="2" fill="#F3F3F1"/>
<circle cx="102" cy="248" r="2" fill="#F3F3F1"/>
<circle cx="122" cy="248" r="2" fill="#F3F3F1"/>
<circle cx="142" cy="248" r="2" fill="#F3F3F1"/>
<circle cx="162" cy="248" r="2" fill="#F3F3F1"/>
<circle cx="182" cy="248" r="2" fill="#F3F3F1"/>
<circle cx="202" cy="248" r="2" fill="#F3F3F1"/>
<circle cx="222" cy="248" r="2" fill="#F3F3F1"/>
<circle cx="242" cy="248" r="2" fill="#F3F3F1"/>
<circle cx="262" cy="248" r="2" fill="#F3F3F1"/>
<circle cx="282" cy="248" r="2" fill="#F3F3F1"/>
<circle cx="302" cy="248" r="2" fill="#F3F3F1"/>
<circle cx="322" cy="248" r="2" fill="#F3F3F1"/>
<circle cx="342" cy="248" r="2" fill="#F3F3F1"/>
<circle cx="362" cy="248" r="2" fill="#F3F3F1"/>
<circle cx="382" cy="248" r="2" fill="#F3F3F1"/>
<circle cx="402" cy="248" r="2" fill="#F3F3F1"/>
<circle cx="422" cy="248" r="2" fill="#F3F3F1"/>
<circle cx="442" cy="248" r="2" fill="#F3F3F1"/>
<circle cx="462" cy="248" r="2" fill="#F3F3F1"/>
<circle cx="482" cy="248" r="2" fill="#F3F3F1"/>
<circle cx="502" cy="248" r="2" fill="#F3F3F1"/>
<circle cx="522" cy="248" r="2" fill="#F3F3F1"/>
<circle cx="542" cy="248" r="2" fill="#F3F3F1"/>
<circle cx="562" cy="248" r="2" fill="#F3F3F1"/>
<circle cx="582" cy="248" r="2" fill="#F3F3F1"/>
<circle cx="602" cy="248" r="2" fill="#F3F3F1"/>
<circle cx="622" cy="248" r="2" fill="#F3F3F1"/>
<circle cx="642" cy="248" r="2" fill="#F3F3F1"/>
<circle cx="662" cy="248" r="2" fill="#F3F3F1"/>
<circle cx="682" cy="248" r="2" fill="#F3F3F1"/>
<circle cx="702" cy="248" r="2" fill="#F3F3F1"/>
<circle cx="722" cy="248" r="2" fill="#F3F3F1"/>
<circle cx="742" cy="248" r="2" fill="#F3F3F1"/>
<circle cx="762" cy="248" r="2" fill="#F3F3F1"/>
<circle cx="782" cy="248" r="2" fill="#F3F3F1"/>
<circle cx="802" cy="248" r="2" fill="#F3F3F1"/>
<circle cx="822" cy="248" r="2" fill="#F3F3F1"/>
<circle cx="842" cy="248" r="2" fill="#F3F3F1"/>
<circle cx="2" cy="268" r="2" fill="#F3F3F1"/>
<circle cx="22" cy="268" r="2" fill="#F3F3F1"/>
<circle cx="42" cy="268" r="2" fill="#F3F3F1"/>
<circle cx="62" cy="268" r="2" fill="#F3F3F1"/>
<circle cx="82" cy="268" r="2" fill="#F3F3F1"/>
<circle cx="102" cy="268" r="2" fill="#F3F3F1"/>
<circle cx="122" cy="268" r="2" fill="#F3F3F1"/>
<circle cx="142" cy="268" r="2" fill="#F3F3F1"/>
<circle cx="162" cy="268" r="2" fill="#F3F3F1"/>
<circle cx="182" cy="268" r="2" fill="#F3F3F1"/>
<circle cx="202" cy="268" r="2" fill="#F3F3F1"/>
<circle cx="222" cy="268" r="2" fill="#F3F3F1"/>
<circle cx="242" cy="268" r="2" fill="#F3F3F1"/>
<circle cx="262" cy="268" r="2" fill="#F3F3F1"/>
<circle cx="282" cy="268" r="2" fill="#F3F3F1"/>
<circle cx="302" cy="268" r="2" fill="#F3F3F1"/>
<circle cx="322" cy="268" r="2" fill="#F3F3F1"/>
<circle cx="342" cy="268" r="2" fill="#F3F3F1"/>
<circle cx="362" cy="268" r="2" fill="#F3F3F1"/>
<circle cx="382" cy="268" r="2" fill="#F3F3F1"/>
<circle cx="402" cy="268" r="2" fill="#F3F3F1"/>
<circle cx="422" cy="268" r="2" fill="#F3F3F1"/>
<circle cx="442" cy="268" r="2" fill="#F3F3F1"/>
<circle cx="462" cy="268" r="2" fill="#F3F3F1"/>
<circle cx="482" cy="268" r="2" fill="#F3F3F1"/>
<circle cx="502" cy="268" r="2" fill="#F3F3F1"/>
<circle cx="522" cy="268" r="2" fill="#F3F3F1"/>
<circle cx="542" cy="268" r="2" fill="#F3F3F1"/>
<circle cx="562" cy="268" r="2" fill="#F3F3F1"/>
<circle cx="582" cy="268" r="2" fill="#F3F3F1"/>
<circle cx="602" cy="268" r="2" fill="#F3F3F1"/>
<circle cx="622" cy="268" r="2" fill="#F3F3F1"/>
<circle cx="642" cy="268" r="2" fill="#F3F3F1"/>
<circle cx="662" cy="268" r="2" fill="#F3F3F1"/>
<circle cx="682" cy="268" r="2" fill="#F3F3F1"/>
<circle cx="702" cy="268" r="2" fill="#F3F3F1"/>
<circle cx="722" cy="268" r="2" fill="#F3F3F1"/>
<circle cx="742" cy="268" r="2" fill="#F3F3F1"/>
<circle cx="762" cy="268" r="2" fill="#F3F3F1"/>
<circle cx="782" cy="268" r="2" fill="#F3F3F1"/>
<circle cx="802" cy="268" r="2" fill="#F3F3F1"/>
<circle cx="822" cy="268" r="2" fill="#F3F3F1"/>
<circle cx="842" cy="268" r="2" fill="#F3F3F1"/>
<circle cx="2" cy="288" r="2" fill="#F3F3F1"/>
<circle cx="22" cy="288" r="2" fill="#F3F3F1"/>
<circle cx="42" cy="288" r="2" fill="#F3F3F1"/>
<circle cx="62" cy="288" r="2" fill="#F3F3F1"/>
<circle cx="82" cy="288" r="2" fill="#F3F3F1"/>
<circle cx="102" cy="288" r="2" fill="#F3F3F1"/>
<circle cx="122" cy="288" r="2" fill="#F3F3F1"/>
<circle cx="142" cy="288" r="2" fill="#F3F3F1"/>
<circle cx="162" cy="288" r="2" fill="#F3F3F1"/>
<circle cx="182" cy="288" r="2" fill="#F3F3F1"/>
<circle cx="202" cy="288" r="2" fill="#F3F3F1"/>
<circle cx="222" cy="288" r="2" fill="#F3F3F1"/>
<circle cx="242" cy="288" r="2" fill="#F3F3F1"/>
<circle cx="262" cy="288" r="2" fill="#F3F3F1"/>
<circle cx="282" cy="288" r="2" fill="#F3F3F1"/>
<circle cx="302" cy="288" r="2" fill="#F3F3F1"/>
<circle cx="322" cy="288" r="2" fill="#F3F3F1"/>
<circle cx="342" cy="288" r="2" fill="#F3F3F1"/>
<circle cx="362" cy="288" r="2" fill="#F3F3F1"/>
<circle cx="382" cy="288" r="2" fill="#F3F3F1"/>
<circle cx="402" cy="288" r="2" fill="#F3F3F1"/>
<circle cx="422" cy="288" r="2" fill="#F3F3F1"/>
<circle cx="442" cy="288" r="2" fill="#F3F3F1"/>
<circle cx="462" cy="288" r="2" fill="#F3F3F1"/>
<circle cx="482" cy="288" r="2" fill="#F3F3F1"/>
<circle cx="502" cy="288" r="2" fill="#F3F3F1"/>
<circle cx="522" cy="288" r="2" fill="#F3F3F1"/>
<circle cx="542" cy="288" r="2" fill="#F3F3F1"/>
<circle cx="562" cy="288" r="2" fill="#F3F3F1"/>
<circle cx="582" cy="288" r="2" fill="#F3F3F1"/>
<circle cx="602" cy="288" r="2" fill="#F3F3F1"/>
<circle cx="622" cy="288" r="2" fill="#F3F3F1"/>
<circle cx="642" cy="288" r="2" fill="#F3F3F1"/>
<circle cx="662" cy="288" r="2" fill="#F3F3F1"/>
<circle cx="682" cy="288" r="2" fill="#F3F3F1"/>
<circle cx="702" cy="288" r="2" fill="#F3F3F1"/>
<circle cx="722" cy="288" r="2" fill="#F3F3F1"/>
<circle cx="742" cy="288" r="2" fill="#F3F3F1"/>
<circle cx="762" cy="288" r="2" fill="#F3F3F1"/>
<circle cx="782" cy="288" r="2" fill="#F3F3F1"/>
<circle cx="802" cy="288" r="2" fill="#F3F3F1"/>
<circle cx="822" cy="288" r="2" fill="#F3F3F1"/>
<circle cx="842" cy="288" r="2" fill="#F3F3F1"/>
<circle cx="2" cy="308" r="2" fill="#F3F3F1"/>
<circle cx="22" cy="308" r="2" fill="#F3F3F1"/>
<circle cx="42" cy="308" r="2" fill="#F3F3F1"/>
<circle cx="62" cy="308" r="2" fill="#F3F3F1"/>
<circle cx="82" cy="308" r="2" fill="#F3F3F1"/>
<circle cx="102" cy="308" r="2" fill="#F3F3F1"/>
<circle cx="122" cy="308" r="2" fill="#F3F3F1"/>
<circle cx="142" cy="308" r="2" fill="#F3F3F1"/>
<circle cx="162" cy="308" r="2" fill="#F3F3F1"/>
<circle cx="182" cy="308" r="2" fill="#F3F3F1"/>
<circle cx="202" cy="308" r="2" fill="#F3F3F1"/>
<circle cx="222" cy="308" r="2" fill="#F3F3F1"/>
<circle cx="242" cy="308" r="2" fill="#F3F3F1"/>
<circle cx="262" cy="308" r="2" fill="#F3F3F1"/>
<circle cx="282" cy="308" r="2" fill="#F3F3F1"/>
<circle cx="302" cy="308" r="2" fill="#F3F3F1"/>
<circle cx="322" cy="308" r="2" fill="#F3F3F1"/>
<circle cx="342" cy="308" r="2" fill="#F3F3F1"/>
<circle cx="362" cy="308" r="2" fill="#F3F3F1"/>
<circle cx="382" cy="308" r="2" fill="#F3F3F1"/>
<circle cx="402" cy="308" r="2" fill="#F3F3F1"/>
<circle cx="422" cy="308" r="2" fill="#F3F3F1"/>
<circle cx="442" cy="308" r="2" fill="#F3F3F1"/>
<circle cx="462" cy="308" r="2" fill="#F3F3F1"/>
<circle cx="482" cy="308" r="2" fill="#F3F3F1"/>
<circle cx="502" cy="308" r="2" fill="#F3F3F1"/>
<circle cx="522" cy="308" r="2" fill="#F3F3F1"/>
<circle cx="542" cy="308" r="2" fill="#F3F3F1"/>
<circle cx="562" cy="308" r="2" fill="#F3F3F1"/>
<circle cx="582" cy="308" r="2" fill="#F3F3F1"/>
<circle cx="602" cy="308" r="2" fill="#F3F3F1"/>
<circle cx="622" cy="308" r="2" fill="#F3F3F1"/>
<circle cx="642" cy="308" r="2" fill="#F3F3F1"/>
<circle cx="662" cy="308" r="2" fill="#F3F3F1"/>
<circle cx="682" cy="308" r="2" fill="#F3F3F1"/>
<circle cx="702" cy="308" r="2" fill="#F3F3F1"/>
<circle cx="722" cy="308" r="2" fill="#F3F3F1"/>
<circle cx="742" cy="308" r="2" fill="#F3F3F1"/>
<circle cx="762" cy="308" r="2" fill="#F3F3F1"/>
<circle cx="782" cy="308" r="2" fill="#F3F3F1"/>
<circle cx="802" cy="308" r="2" fill="#F3F3F1"/>
<circle cx="822" cy="308" r="2" fill="#F3F3F1"/>
<circle cx="842" cy="308" r="2" fill="#F3F3F1"/>
<circle cx="2" cy="328" r="2" fill="#F3F3F1"/>
<circle cx="22" cy="328" r="2" fill="#F3F3F1"/>
<circle cx="42" cy="328" r="2" fill="#F3F3F1"/>
<circle cx="62" cy="328" r="2" fill="#F3F3F1"/>
<circle cx="82" cy="328" r="2" fill="#F3F3F1"/>
<circle cx="102" cy="328" r="2" fill="#F3F3F1"/>
<circle cx="122" cy="328" r="2" fill="#F3F3F1"/>
<circle cx="142" cy="328" r="2" fill="#F3F3F1"/>
<circle cx="162" cy="328" r="2" fill="#F3F3F1"/>
<circle cx="182" cy="328" r="2" fill="#F3F3F1"/>
<circle cx="202" cy="328" r="2" fill="#F3F3F1"/>
<circle cx="222" cy="328" r="2" fill="#F3F3F1"/>
<circle cx="242" cy="328" r="2" fill="#F3F3F1"/>
<circle cx="262" cy="328" r="2" fill="#F3F3F1"/>
<circle cx="282" cy="328" r="2" fill="#F3F3F1"/>
<circle cx="302" cy="328" r="2" fill="#F3F3F1"/>
<circle cx="322" cy="328" r="2" fill="#F3F3F1"/>
<circle cx="342" cy="328" r="2" fill="#F3F3F1"/>
<circle cx="362" cy="328" r="2" fill="#F3F3F1"/>
<circle cx="382" cy="328" r="2" fill="#F3F3F1"/>
<circle cx="402" cy="328" r="2" fill="#F3F3F1"/>
<circle cx="422" cy="328" r="2" fill="#F3F3F1"/>
<circle cx="442" cy="328" r="2" fill="#F3F3F1"/>
<circle cx="462" cy="328" r="2" fill="#F3F3F1"/>
<circle cx="482" cy="328" r="2" fill="#F3F3F1"/>
<circle cx="502" cy="328" r="2" fill="#F3F3F1"/>
<circle cx="522" cy="328" r="2" fill="#F3F3F1"/>
<circle cx="542" cy="328" r="2" fill="#F3F3F1"/>
<circle cx="562" cy="328" r="2" fill="#F3F3F1"/>
<circle cx="582" cy="328" r="2" fill="#F3F3F1"/>
<circle cx="602" cy="328" r="2" fill="#F3F3F1"/>
<circle cx="622" cy="328" r="2" fill="#F3F3F1"/>
<circle cx="642" cy="328" r="2" fill="#F3F3F1"/>
<circle cx="662" cy="328" r="2" fill="#F3F3F1"/>
<circle cx="682" cy="328" r="2" fill="#F3F3F1"/>
<circle cx="702" cy="328" r="2" fill="#F3F3F1"/>
<circle cx="722" cy="328" r="2" fill="#F3F3F1"/>
<circle cx="742" cy="328" r="2" fill="#F3F3F1"/>
<circle cx="762" cy="328" r="2" fill="#F3F3F1"/>
<circle cx="782" cy="328" r="2" fill="#F3F3F1"/>
<circle cx="802" cy="328" r="2" fill="#F3F3F1"/>
<circle cx="822" cy="328" r="2" fill="#F3F3F1"/>
<circle cx="842" cy="328" r="2" fill="#F3F3F1"/>
<circle cx="2" cy="348" r="2" fill="#F3F3F1"/>
<circle cx="22" cy="348" r="2" fill="#F3F3F1"/>
<circle cx="42" cy="348" r="2" fill="#F3F3F1"/>
<circle cx="62" cy="348" r="2" fill="#F3F3F1"/>
<circle cx="82" cy="348" r="2" fill="#F3F3F1"/>
<circle cx="102" cy="348" r="2" fill="#F3F3F1"/>
<circle cx="122" cy="348" r="2" fill="#F3F3F1"/>
<circle cx="142" cy="348" r="2" fill="#F3F3F1"/>
<circle cx="162" cy="348" r="2" fill="#F3F3F1"/>
<circle cx="182" cy="348" r="2" fill="#F3F3F1"/>
<circle cx="202" cy="348" r="2" fill="#F3F3F1"/>
<circle cx="222" cy="348" r="2" fill="#F3F3F1"/>
<circle cx="242" cy="348" r="2" fill="#F3F3F1"/>
<circle cx="262" cy="348" r="2" fill="#F3F3F1"/>
<circle cx="282" cy="348" r="2" fill="#F3F3F1"/>
<circle cx="302" cy="348" r="2" fill="#F3F3F1"/>
<circle cx="322" cy="348" r="2" fill="#F3F3F1"/>
<circle cx="342" cy="348" r="2" fill="#F3F3F1"/>
<circle cx="362" cy="348" r="2" fill="#F3F3F1"/>
<circle cx="382" cy="348" r="2" fill="#F3F3F1"/>
<circle cx="402" cy="348" r="2" fill="#F3F3F1"/>
<circle cx="422" cy="348" r="2" fill="#F3F3F1"/>
<circle cx="442" cy="348" r="2" fill="#F3F3F1"/>
<circle cx="462" cy="348" r="2" fill="#F3F3F1"/>
<circle cx="482" cy="348" r="2" fill="#F3F3F1"/>
<circle cx="502" cy="348" r="2" fill="#F3F3F1"/>
<circle cx="522" cy="348" r="2" fill="#F3F3F1"/>
<circle cx="542" cy="348" r="2" fill="#F3F3F1"/>
<circle cx="562" cy="348" r="2" fill="#F3F3F1"/>
<circle cx="582" cy="348" r="2" fill="#F3F3F1"/>
<circle cx="602" cy="348" r="2" fill="#F3F3F1"/>
<circle cx="622" cy="348" r="2" fill="#F3F3F1"/>
<circle cx="642" cy="348" r="2" fill="#F3F3F1"/>
<circle cx="662" cy="348" r="2" fill="#F3F3F1"/>
<circle cx="682" cy="348" r="2" fill="#F3F3F1"/>
<circle cx="702" cy="348" r="2" fill="#F3F3F1"/>
<circle cx="722" cy="348" r="2" fill="#F3F3F1"/>
<circle cx="742" cy="348" r="2" fill="#F3F3F1"/>
<circle cx="762" cy="348" r="2" fill="#F3F3F1"/>
<circle cx="782" cy="348" r="2" fill="#F3F3F1"/>
<circle cx="802" cy="348" r="2" fill="#F3F3F1"/>
<circle cx="822" cy="348" r="2" fill="#F3F3F1"/>
<circle cx="842" cy="348" r="2" fill="#F3F3F1"/>
<circle cx="2" cy="368" r="2" fill="#F3F3F1"/>
<circle cx="22" cy="368" r="2" fill="#F3F3F1"/>
<circle cx="42" cy="368" r="2" fill="#F3F3F1"/>
<circle cx="62" cy="368" r="2" fill="#F3F3F1"/>
<circle cx="82" cy="368" r="2" fill="#F3F3F1"/>
<circle cx="102" cy="368" r="2" fill="#F3F3F1"/>
<circle cx="122" cy="368" r="2" fill="#F3F3F1"/>
<circle cx="142" cy="368" r="2" fill="#F3F3F1"/>
<circle cx="162" cy="368" r="2" fill="#F3F3F1"/>
<circle cx="182" cy="368" r="2" fill="#F3F3F1"/>
<circle cx="202" cy="368" r="2" fill="#F3F3F1"/>
<circle cx="222" cy="368" r="2" fill="#F3F3F1"/>
<circle cx="242" cy="368" r="2" fill="#F3F3F1"/>
<circle cx="262" cy="368" r="2" fill="#F3F3F1"/>
<circle cx="282" cy="368" r="2" fill="#F3F3F1"/>
<circle cx="302" cy="368" r="2" fill="#F3F3F1"/>
<circle cx="322" cy="368" r="2" fill="#F3F3F1"/>
<circle cx="342" cy="368" r="2" fill="#F3F3F1"/>
<circle cx="362" cy="368" r="2" fill="#F3F3F1"/>
<circle cx="382" cy="368" r="2" fill="#F3F3F1"/>
<circle cx="402" cy="368" r="2" fill="#F3F3F1"/>
<circle cx="422" cy="368" r="2" fill="#F3F3F1"/>
<circle cx="442" cy="368" r="2" fill="#F3F3F1"/>
<circle cx="462" cy="368" r="2" fill="#F3F3F1"/>
<circle cx="482" cy="368" r="2" fill="#F3F3F1"/>
<circle cx="502" cy="368" r="2" fill="#F3F3F1"/>
<circle cx="522" cy="368" r="2" fill="#F3F3F1"/>
<circle cx="542" cy="368" r="2" fill="#F3F3F1"/>
<circle cx="562" cy="368" r="2" fill="#F3F3F1"/>
<circle cx="582" cy="368" r="2" fill="#F3F3F1"/>
<circle cx="602" cy="368" r="2" fill="#F3F3F1"/>
<circle cx="622" cy="368" r="2" fill="#F3F3F1"/>
<circle cx="642" cy="368" r="2" fill="#F3F3F1"/>
<circle cx="662" cy="368" r="2" fill="#F3F3F1"/>
<circle cx="682" cy="368" r="2" fill="#F3F3F1"/>
<circle cx="702" cy="368" r="2" fill="#F3F3F1"/>
<circle cx="722" cy="368" r="2" fill="#F3F3F1"/>
<circle cx="742" cy="368" r="2" fill="#F3F3F1"/>
<circle cx="762" cy="368" r="2" fill="#F3F3F1"/>
<circle cx="782" cy="368" r="2" fill="#F3F3F1"/>
<circle cx="802" cy="368" r="2" fill="#F3F3F1"/>
<circle cx="822" cy="368" r="2" fill="#F3F3F1"/>
<circle cx="842" cy="368" r="2" fill="#F3F3F1"/>
<circle cx="2" cy="388" r="2" fill="#F3F3F1"/>
<circle cx="22" cy="388" r="2" fill="#F3F3F1"/>
<circle cx="42" cy="388" r="2" fill="#F3F3F1"/>
<circle cx="62" cy="388" r="2" fill="#F3F3F1"/>
<circle cx="82" cy="388" r="2" fill="#F3F3F1"/>
<circle cx="102" cy="388" r="2" fill="#F3F3F1"/>
<circle cx="122" cy="388" r="2" fill="#F3F3F1"/>
<circle cx="142" cy="388" r="2" fill="#F3F3F1"/>
<circle cx="162" cy="388" r="2" fill="#F3F3F1"/>
<circle cx="182" cy="388" r="2" fill="#F3F3F1"/>
<circle cx="202" cy="388" r="2" fill="#F3F3F1"/>
<circle cx="222" cy="388" r="2" fill="#F3F3F1"/>
<circle cx="242" cy="388" r="2" fill="#F3F3F1"/>
<circle cx="262" cy="388" r="2" fill="#F3F3F1"/>
<circle cx="282" cy="388" r="2" fill="#F3F3F1"/>
<circle cx="302" cy="388" r="2" fill="#F3F3F1"/>
<circle cx="322" cy="388" r="2" fill="#F3F3F1"/>
<circle cx="342" cy="388" r="2" fill="#F3F3F1"/>
<circle cx="362" cy="388" r="2" fill="#F3F3F1"/>
<circle cx="382" cy="388" r="2" fill="#F3F3F1"/>
<circle cx="402" cy="388" r="2" fill="#F3F3F1"/>
<circle cx="422" cy="388" r="2" fill="#F3F3F1"/>
<circle cx="442" cy="388" r="2" fill="#F3F3F1"/>
<circle cx="462" cy="388" r="2" fill="#F3F3F1"/>
<circle cx="482" cy="388" r="2" fill="#F3F3F1"/>
<circle cx="502" cy="388" r="2" fill="#F3F3F1"/>
<circle cx="522" cy="388" r="2" fill="#F3F3F1"/>
<circle cx="542" cy="388" r="2" fill="#F3F3F1"/>
<circle cx="562" cy="388" r="2" fill="#F3F3F1"/>
<circle cx="582" cy="388" r="2" fill="#F3F3F1"/>
<circle cx="602" cy="388" r="2" fill="#F3F3F1"/>
<circle cx="622" cy="388" r="2" fill="#F3F3F1"/>
<circle cx="642" cy="388" r="2" fill="#F3F3F1"/>
<circle cx="662" cy="388" r="2" fill="#F3F3F1"/>
<circle cx="682" cy="388" r="2" fill="#F3F3F1"/>
<circle cx="702" cy="388" r="2" fill="#F3F3F1"/>
<circle cx="722" cy="388" r="2" fill="#F3F3F1"/>
<circle cx="742" cy="388" r="2" fill="#F3F3F1"/>
<circle cx="762" cy="388" r="2" fill="#F3F3F1"/>
<circle cx="782" cy="388" r="2" fill="#F3F3F1"/>
<circle cx="802" cy="388" r="2" fill="#F3F3F1"/>
<circle cx="822" cy="388" r="2" fill="#F3F3F1"/>
<circle cx="842" cy="388" r="2" fill="#F3F3F1"/>
<circle cx="2" cy="408" r="2" fill="#F3F3F1"/>
<circle cx="22" cy="408" r="2" fill="#F3F3F1"/>
<circle cx="42" cy="408" r="2" fill="#F3F3F1"/>
<circle cx="62" cy="408" r="2" fill="#F3F3F1"/>
<circle cx="82" cy="408" r="2" fill="#F3F3F1"/>
<circle cx="102" cy="408" r="2" fill="#F3F3F1"/>
<circle cx="122" cy="408" r="2" fill="#F3F3F1"/>
<circle cx="142" cy="408" r="2" fill="#F3F3F1"/>
<circle cx="162" cy="408" r="2" fill="#F3F3F1"/>
<circle cx="182" cy="408" r="2" fill="#F3F3F1"/>
<circle cx="202" cy="408" r="2" fill="#F3F3F1"/>
<circle cx="222" cy="408" r="2" fill="#F3F3F1"/>
<circle cx="242" cy="408" r="2" fill="#F3F3F1"/>
<circle cx="262" cy="408" r="2" fill="#F3F3F1"/>
<circle cx="282" cy="408" r="2" fill="#F3F3F1"/>
<circle cx="302" cy="408" r="2" fill="#F3F3F1"/>
<circle cx="322" cy="408" r="2" fill="#F3F3F1"/>
<circle cx="342" cy="408" r="2" fill="#F3F3F1"/>
<circle cx="362" cy="408" r="2" fill="#F3F3F1"/>
<circle cx="382" cy="408" r="2" fill="#F3F3F1"/>
<circle cx="402" cy="408" r="2" fill="#F3F3F1"/>
<circle cx="422" cy="408" r="2" fill="#F3F3F1"/>
<circle cx="442" cy="408" r="2" fill="#F3F3F1"/>
<circle cx="462" cy="408" r="2" fill="#F3F3F1"/>
<circle cx="482" cy="408" r="2" fill="#F3F3F1"/>
<circle cx="502" cy="408" r="2" fill="#F3F3F1"/>
<circle cx="522" cy="408" r="2" fill="#F3F3F1"/>
<circle cx="542" cy="408" r="2" fill="#F3F3F1"/>
<circle cx="562" cy="408" r="2" fill="#F3F3F1"/>
<circle cx="582" cy="408" r="2" fill="#F3F3F1"/>
<circle cx="602" cy="408" r="2" fill="#F3F3F1"/>
<circle cx="622" cy="408" r="2" fill="#F3F3F1"/>
<circle cx="642" cy="408" r="2" fill="#F3F3F1"/>
<circle cx="662" cy="408" r="2" fill="#F3F3F1"/>
<circle cx="682" cy="408" r="2" fill="#F3F3F1"/>
<circle cx="702" cy="408" r="2" fill="#F3F3F1"/>
<circle cx="722" cy="408" r="2" fill="#F3F3F1"/>
<circle cx="742" cy="408" r="2" fill="#F3F3F1"/>
<circle cx="762" cy="408" r="2" fill="#F3F3F1"/>
<circle cx="782" cy="408" r="2" fill="#F3F3F1"/>
<circle cx="802" cy="408" r="2" fill="#F3F3F1"/>
<circle cx="822" cy="408" r="2" fill="#F3F3F1"/>
<circle cx="842" cy="408" r="2" fill="#F3F3F1"/>
<circle cx="2" cy="428" r="2" fill="#F3F3F1"/>
<circle cx="22" cy="428" r="2" fill="#F3F3F1"/>
<circle cx="42" cy="428" r="2" fill="#F3F3F1"/>
<circle cx="62" cy="428" r="2" fill="#F3F3F1"/>
<circle cx="82" cy="428" r="2" fill="#F3F3F1"/>
<circle cx="102" cy="428" r="2" fill="#F3F3F1"/>
<circle cx="122" cy="428" r="2" fill="#F3F3F1"/>
<circle cx="142" cy="428" r="2" fill="#F3F3F1"/>
<circle cx="162" cy="428" r="2" fill="#F3F3F1"/>
<circle cx="182" cy="428" r="2" fill="#F3F3F1"/>
<circle cx="202" cy="428" r="2" fill="#F3F3F1"/>
<circle cx="222" cy="428" r="2" fill="#F3F3F1"/>
<circle cx="242" cy="428" r="2" fill="#F3F3F1"/>
<circle cx="262" cy="428" r="2" fill="#F3F3F1"/>
<circle cx="282" cy="428" r="2" fill="#F3F3F1"/>
<circle cx="302" cy="428" r="2" fill="#F3F3F1"/>
<circle cx="322" cy="428" r="2" fill="#F3F3F1"/>
<circle cx="342" cy="428" r="2" fill="#F3F3F1"/>
<circle cx="362" cy="428" r="2" fill="#F3F3F1"/>
<circle cx="382" cy="428" r="2" fill="#F3F3F1"/>
<circle cx="402" cy="428" r="2" fill="#F3F3F1"/>
<circle cx="422" cy="428" r="2" fill="#F3F3F1"/>
<circle cx="442" cy="428" r="2" fill="#F3F3F1"/>
<circle cx="462" cy="428" r="2" fill="#F3F3F1"/>
<circle cx="482" cy="428" r="2" fill="#F3F3F1"/>
<circle cx="502" cy="428" r="2" fill="#F3F3F1"/>
<circle cx="522" cy="428" r="2" fill="#F3F3F1"/>
<circle cx="542" cy="428" r="2" fill="#F3F3F1"/>
<circle cx="562" cy="428" r="2" fill="#F3F3F1"/>
<circle cx="582" cy="428" r="2" fill="#F3F3F1"/>
<circle cx="602" cy="428" r="2" fill="#F3F3F1"/>
<circle cx="622" cy="428" r="2" fill="#F3F3F1"/>
<circle cx="642" cy="428" r="2" fill="#F3F3F1"/>
<circle cx="662" cy="428" r="2" fill="#F3F3F1"/>
<circle cx="682" cy="428" r="2" fill="#F3F3F1"/>
<circle cx="702" cy="428" r="2" fill="#F3F3F1"/>
<circle cx="722" cy="428" r="2" fill="#F3F3F1"/>
<circle cx="742" cy="428" r="2" fill="#F3F3F1"/>
<circle cx="762" cy="428" r="2" fill="#F3F3F1"/>
<circle cx="782" cy="428" r="2" fill="#F3F3F1"/>
<circle cx="802" cy="428" r="2" fill="#F3F3F1"/>
<circle cx="822" cy="428" r="2" fill="#F3F3F1"/>
<circle cx="842" cy="428" r="2" fill="#F3F3F1"/>
<circle cx="2" cy="448" r="2" fill="#F3F3F1"/>
<circle cx="22" cy="448" r="2" fill="#F3F3F1"/>
<circle cx="42" cy="448" r="2" fill="#F3F3F1"/>
<circle cx="62" cy="448" r="2" fill="#F3F3F1"/>
<circle cx="82" cy="448" r="2" fill="#F3F3F1"/>
<circle cx="102" cy="448" r="2" fill="#F3F3F1"/>
<circle cx="122" cy="448" r="2" fill="#F3F3F1"/>
<circle cx="142" cy="448" r="2" fill="#F3F3F1"/>
<circle cx="162" cy="448" r="2" fill="#F3F3F1"/>
<circle cx="182" cy="448" r="2" fill="#F3F3F1"/>
<circle cx="202" cy="448" r="2" fill="#F3F3F1"/>
<circle cx="222" cy="448" r="2" fill="#F3F3F1"/>
<circle cx="242" cy="448" r="2" fill="#F3F3F1"/>
<circle cx="262" cy="448" r="2" fill="#F3F3F1"/>
<circle cx="282" cy="448" r="2" fill="#F3F3F1"/>
<circle cx="302" cy="448" r="2" fill="#F3F3F1"/>
<circle cx="322" cy="448" r="2" fill="#F3F3F1"/>
<circle cx="342" cy="448" r="2" fill="#F3F3F1"/>
<circle cx="362" cy="448" r="2" fill="#F3F3F1"/>
<circle cx="382" cy="448" r="2" fill="#F3F3F1"/>
<circle cx="402" cy="448" r="2" fill="#F3F3F1"/>
<circle cx="422" cy="448" r="2" fill="#F3F3F1"/>
<circle cx="442" cy="448" r="2" fill="#F3F3F1"/>
<circle cx="462" cy="448" r="2" fill="#F3F3F1"/>
<circle cx="482" cy="448" r="2" fill="#F3F3F1"/>
<circle cx="502" cy="448" r="2" fill="#F3F3F1"/>
<circle cx="522" cy="448" r="2" fill="#F3F3F1"/>
<circle cx="542" cy="448" r="2" fill="#F3F3F1"/>
<circle cx="562" cy="448" r="2" fill="#F3F3F1"/>
<circle cx="582" cy="448" r="2" fill="#F3F3F1"/>
<circle cx="602" cy="448" r="2" fill="#F3F3F1"/>
<circle cx="622" cy="448" r="2" fill="#F3F3F1"/>
<circle cx="642" cy="448" r="2" fill="#F3F3F1"/>
<circle cx="662" cy="448" r="2" fill="#F3F3F1"/>
<circle cx="682" cy="448" r="2" fill="#F3F3F1"/>
<circle cx="702" cy="448" r="2" fill="#F3F3F1"/>
<circle cx="722" cy="448" r="2" fill="#F3F3F1"/>
<circle cx="742" cy="448" r="2" fill="#F3F3F1"/>
<circle cx="762" cy="448" r="2" fill="#F3F3F1"/>
<circle cx="782" cy="448" r="2" fill="#F3F3F1"/>
<circle cx="802" cy="448" r="2" fill="#F3F3F1"/>
<circle cx="822" cy="448" r="2" fill="#F3F3F1"/>
<circle cx="842" cy="448" r="2" fill="#F3F3F1"/>
<circle class="js-cir" cx="122" cy="448" r="7" stroke="#BEB7A4" stroke-width="2"/>
<circle cx="42" cy="228" r="7" stroke="#BEB7A4" stroke-width="2"/>
<circle class="js-cir" cx="242" cy="348" r="7" stroke="#BEB7A4" stroke-width="2"/>
<circle cx="282" cy="88" r="7" stroke="#BEB7A4" stroke-width="2"/>
<circle cx="142" cy="8" r="7" stroke="#BEB7A4" stroke-width="2"/>
<circle class="js-cir" cx="362" cy="288" r="7" stroke="#BEB7A4" stroke-width="2"/>
<circle class="js-cir" cx="482" cy="328" r="7" stroke="#BEB7A4" stroke-width="2"/>
<circle cx="422" cy="428" r="7" stroke="#BEB7A4" stroke-width="2"/>
<circle cx="782" cy="308" r="7" stroke="#BEB7A4" stroke-width="2"/>
<circle cx="522" cy="48" r="7" stroke="#BEB7A4" stroke-width="2"/>
<circle cx="402" cy="168" r="7" stroke="#BEB7A4" stroke-width="2"/>
<circle class="js-cir" cx="602" cy="228" r="7" stroke="#BEB7A4" stroke-width="2"/>
<circle class="js-cir" cx="722" cy="128" r="7" stroke="#BEB7A4" stroke-width="2"/>
<circle cx="842" cy="208" r="7" stroke="#BEB7A4" stroke-width="2"/>
</svg>
