<svg width="900" height="220" viewBox="0 0 900 220" fill="none" xmlns="http://www.w3.org/2000/svg">
<g clip-path="url(#clip0_316_135)">
<path d="M265.714 164.834V55.0126H318.16C343.916 55.0126 360.885 69.3564 360.885 91.1092C360.885 109.157 348.08 122.108 330.499 124.274L329.266 124.427L364.437 164.841H335.129L303.663 126.28H291.325V164.841H265.722L265.714 164.834ZM291.317 108.224H314.762C327.1 108.224 335.428 101.749 335.428 91.255C335.428 80.7615 326.94 74.4391 314.762 74.4391H291.317V108.217V108.224Z" fill="#E6AF2E"/>
<path d="M364.429 124.726C364.429 100.049 382.477 83.3867 407.927 83.3867C433.377 83.3867 450.346 100.203 450.346 125.033C450.346 127.038 450.346 130.276 450.04 131.975H388.034C389.886 143.081 397.755 150.329 409.014 150.329C417.808 150.329 424.59 146.012 427.988 139.53L447.422 144.466C442.485 158.657 427.215 167.298 408.088 167.298C382.485 167.298 364.436 150.176 364.436 124.726H364.429ZM427.055 117.784C425.669 107.757 417.954 100.356 407.315 100.356C396.675 100.356 389.733 107.298 387.881 117.784H427.055Z" fill="#E6AF2E"/>
<path d="M656.206 125.346C656.206 100.203 673.634 83.394 699.084 83.394C720.524 83.394 736.873 95.4262 739.498 114.087L718.212 116.865C716.207 108.231 708.185 102.215 699.398 102.215C687.832 102.215 679.038 111.775 679.038 125.353C679.038 138.932 687.672 148.492 699.245 148.492C708.346 148.492 716.061 142.476 718.219 133.995L739.658 136.62C736.727 155.281 720.225 167.313 699.092 167.313C673.948 167.313 656.213 150.344 656.213 125.361L656.206 125.346Z" fill="#E6AF2E"/>
<path d="M754.71 139.384V102.521H743.604V85.866H755.322L759.8 60.8756H777.695L777.542 85.866H795.59V102.521H777.542V138.458C777.542 145.086 781.552 149.564 788.028 149.564C790.186 149.564 793.584 149.097 796.202 148.484V164.834C791.732 166.38 785.249 167.298 780.779 167.298C764.89 167.298 754.71 156.039 754.71 139.384Z" fill="#E6AF2E"/>
<path d="M802.605 102.5V60.861H822.491C832.255 60.861 838.687 66.301 838.687 74.5485C838.687 81.3886 833.83 86.3036 827.165 87.1203L826.699 87.1786L840.029 102.5H828.915L816.985 87.8787H812.304V102.5H802.598H802.605ZM812.311 81.0386H821.2C825.882 81.0386 829.039 78.5811 829.039 74.6068C829.039 70.6326 825.823 68.2334 821.2 68.2334H812.311V81.0386Z" fill="#E6AF2E"/>
<path d="M840.692 81.6803C840.692 68.5251 850.107 59.7526 863.736 59.7526C877.365 59.7526 886.779 68.5251 886.779 81.6803C886.779 94.8355 877.365 103.608 863.736 103.608C850.107 103.608 840.692 94.8938 840.692 81.6803ZM877.066 81.6803C877.066 73.4911 871.568 67.8761 863.736 67.8761C855.904 67.8761 850.406 73.4911 850.406 81.6803C850.406 89.8695 855.904 95.5428 863.736 95.5428C871.568 95.5428 877.066 89.8695 877.066 81.6803Z" fill="#E6AF2E"/>
<path d="M890.294 102.5V60.861H900V102.5H890.294Z" fill="#E6AF2E"/>
<path d="M560.948 84.3274C552.62 84.3274 544.905 90.8321 541.514 98.2337H539.035V85.8515H517.304H488.127V77.2174C488.127 71.3545 492.138 67.4969 498.307 67.4969C500.925 67.4969 503.551 67.9636 505.862 68.5762V50.3747C501.385 48.9892 495.989 47.91 490.592 47.91C475.475 47.91 465.296 59.3223 465.296 76.4445V85.8515H454.189V102.507H465.296V164.819H488.127V102.507H517.304V164.819H540.136V124.413C540.136 113.044 546.465 106.357 556.485 106.357C559.723 106.357 563.252 106.627 569.895 107.611V86.3109C567.431 85.0785 564.193 84.3055 560.955 84.3055L560.948 84.3274Z" fill="#E6AF2E"/>
<path d="M571.624 144.189C571.624 129.393 584.101 120.307 608.916 117.223L625.71 115.217V111.98C625.71 104.432 620.474 99.3421 611.381 99.3421C603.06 99.3421 597.358 103.965 597.511 111.826H575.168C575.168 94.5657 589.497 83.4742 611.687 83.4742C633.877 83.4742 648.513 94.8792 648.513 112.752V164.834H626.49V153.246H624.164C619.235 161.107 610.141 166.832 598.896 166.832C582.715 166.832 571.624 158.358 571.624 144.182V144.189ZM625.703 134.636V129.087L609.521 131.092C598.277 132.478 593.96 136.948 593.96 142.344C593.96 148.2 598.583 151.897 606.437 151.897C617.842 151.897 625.695 144.503 625.695 134.636H625.703Z" fill="#E6AF2E"/>
<path d="M199.224 174.211C170.055 214.727 118.426 229.494 73.6004 213.757C71.6972 213.086 69.8012 212.372 67.9125 211.591C58.4763 207.683 49.8788 202.607 42.2001 196.606L130.071 133.12L183.954 28.5418C186.032 30.4305 188.03 32.3921 189.948 34.4193L149.265 151.358L109.989 183.75C141.673 187.687 174.51 174.678 194.44 146.99C217.688 114.7 216.419 72.1056 194.316 41.4855L194.899 40.0635C225.906 77.6696 229.049 132.799 199.231 174.219L199.224 174.211ZM179.95 25.0853C178.047 23.5174 176.085 22.008 174.058 20.5568L98.0002 102.995L9.18084 153.91C13.7604 164.418 19.9661 174.219 27.6375 182.896L117.186 121.241L179.958 25.0853H179.95ZM170.011 17.8076C167.998 16.5023 165.935 15.2553 163.82 14.074L65.9363 72.8859L31.4586 86.5005C32.7931 70.8222 38.2331 55.3043 48.0776 41.6314C72.8639 7.19743 117.594 -4.52848 155.259 10.8071L156.185 10.1654C109.296 -11.6092 52.0665 2.20954 20.739 45.715C9.09334 61.9038 2.47199 80.1781 0.5833 98.6858C-0.670964 110.805 0.116597 122.889 2.77826 134.491L85.1149 91.1237L170.018 17.8076H170.011Z" fill="#E6AF2E"/>
</g>
<defs>
<clipPath id="clip0_316_135">
<rect width="900" height="219.926" fill="white"/>
</clipPath>
</defs>
</svg>
