<svg width="20" height="20" viewBox="0 0 20 20" fill="none" xmlns="http://www.w3.org/2000/svg">
<path d="M1.78753 0.588298C1.29925 0.589079 0.860189 0.884398 0.67581 1.33674C0.492216 1.78908 0.60081 2.30706 0.950029 2.64768L8.30243 10.0001L0.950029 17.3517C0.719569 17.5759 0.588309 17.8829 0.585969 18.204C0.583626 18.5259 0.710187 18.8345 0.937529 19.0618C1.16487 19.2892 1.47347 19.4157 1.79535 19.4134C2.11645 19.4111 2.42347 19.2798 2.64769 19.0493L9.99929 11.6969L17.3509 19.0493C17.5751 19.2822 17.8821 19.415 18.2048 19.4181C18.5274 19.4212 18.8376 19.2939 19.0657 19.0658C19.2938 18.8376 19.4204 18.5275 19.4165 18.2048C19.4134 17.8822 19.2798 17.5751 19.047 17.3517L11.6954 10.0001L19.047 2.6477C19.4016 2.30316 19.5079 1.77582 19.3149 1.32036C19.122 0.864898 18.6696 0.574258 18.1751 0.588318C17.8634 0.598474 17.568 0.728942 17.3509 0.951598L9.99927 8.3032L2.64767 0.951598C2.42189 0.719558 2.11095 0.588318 1.78751 0.588318L1.78753 0.588298Z" fill="#044862"></path>
</svg>