<svg width="16" height="12" viewBox="0 0 16 12" fill="none" xmlns="http://www.w3.org/2000/svg">
<path d="M14.863 5.01205L10.1749 0.323892C9.743 -0.107979 9.023 -0.107979 8.59112 0.323892C8.15925 0.755765 8.15925 1.47576 8.59112 1.90764L11.3593 4.69196L1.11929 4.69196C0.495542 4.69196 -0.000713911 5.18821 -0.000713856 5.81196C-0.000713802 6.4357 0.495542 6.93196 1.11929 6.93196L11.3593 6.93196L8.59112 9.70012C8.15925 10.132 8.15925 10.852 8.59112 11.2839C8.81487 11.5076 9.103 11.6201 9.39112 11.6201C9.67925 11.6201 9.96738 11.5082 10.1911 11.2839L14.863 6.61202C15.0711 6.40389 15.1992 6.11577 15.1992 5.81202C15.1992 5.50828 15.0873 5.22015 14.863 5.01202L14.863 5.01205Z" fill="#b20f1a"/>
</svg>
